<svg width="99" height="248" viewBox="0 0 99 248" fill="none" xmlns="http://www.w3.org/2000/svg">
<path d="M0.869986 15.1116C0.118274 14.7635 -0.208826 13.8721 0.139183 13.1204L5.81165 0.870021C6.15974 0.118275 7.05113 -0.208873 7.80287 0.139218L20.0532 5.81168C20.8049 6.15982 21.1321 7.0512 20.784 7.80291C20.4359 8.5545 19.5445 8.8817 18.7928 8.53371L9.82843 4.3828L9.98422 4.80726L7.1679 5.84088L7.01212 5.41642L2.86121 14.3808C2.51311 15.1324 1.62166 15.4596 0.869986 15.1116ZM94.1765 242.914L96.9928 241.88L98.3962 245.704C98.6817 246.482 98.2826 247.343 97.5049 247.629C96.7272 247.914 95.8653 247.515 95.5799 246.738L94.1765 242.914ZM88.5629 227.618L91.3792 226.585L94.186 234.232L91.3697 235.266L88.5629 227.618ZM82.9497 212.324L85.766 211.29L88.5728 218.938L85.7565 219.972L82.9497 212.324ZM77.3361 197.028L80.1524 195.995L82.9592 203.643L80.1429 204.676L77.3361 197.028ZM71.7228 181.734L74.5391 180.7L77.3456 188.347L74.5293 189.381L71.7228 181.734ZM66.1092 166.439L68.9256 165.405L71.7324 173.053L68.916 174.086L66.1092 166.439ZM60.4957 151.143L63.312 150.11L66.1188 157.757L63.3024 158.791L60.4957 151.143ZM54.8824 135.849L57.6987 134.815L60.5052 142.462L57.6889 143.496L54.8824 135.849ZM49.2688 120.553L52.0851 119.52L54.8919 127.168L52.0756 128.201L49.2688 120.553ZM43.6552 105.258L46.4715 104.224L49.2783 111.872L46.462 112.906L43.6552 105.258ZM38.042 89.9636L40.8583 88.93L43.6651 96.5777L40.8488 97.6113L38.042 89.9636ZM32.4284 74.6682L35.2447 73.6346L38.0515 81.2823L35.2352 82.3159L32.4284 74.6682ZM26.8148 59.3729L29.6311 58.3392L32.4379 65.9869L29.6216 67.0205L26.8148 59.3729ZM21.2015 44.0784L24.0179 43.0448L26.8246 50.6925L24.0083 51.7261L21.2015 44.0784ZM15.5879 28.783L18.4043 27.7494L21.2111 35.3971L18.3947 36.4307L15.5879 28.783ZM9.9747 13.4886L12.791 12.4549L15.5975 20.1017L12.7812 21.1353L9.9747 13.4886Z" fill="white"/>
</svg>
