<svg width="40" height="40" viewBox="0 0 40 40" fill="none" xmlns="http://www.w3.org/2000/svg">
<circle cx="20" cy="20" r="20" fill="black" fill-opacity="0.64"/>
<path d="M26.8561 13.9439C27.6742 14.7621 27.6747 16.0888 26.8568 16.907L22.9787 20.7851L26.8561 24.6624C27.6743 25.4806 27.6743 26.808 26.8561 27.6262C26.0379 28.4441 24.7111 28.4436 23.893 27.6255L20.0157 23.7481L16.1383 27.6255C15.3201 28.4437 13.9927 28.4437 13.1745 27.6255C12.3565 26.8073 12.3571 25.4806 13.1752 24.6624L17.0526 20.7851L13.1745 16.907C12.3567 16.0889 12.3567 14.7628 13.1745 13.9446C13.9927 13.1265 15.3194 13.126 16.1376 13.9439L20.0157 17.822L23.8937 13.9439C24.7119 13.1261 26.038 13.126 26.8561 13.9439Z" fill="white"/>
</svg>
