<svg preserveAspectRatio="none" width="100%" height="100%" overflow="visible" style="display: block;" viewBox="0 0 40 40" fill="none" xmlns="http://www.w3.org/2000/svg">
<g id="btn_close">
<circle id="Ellipse 1" cx="20" cy="20" r="20" fill="var(--fill-0, black)" fill-opacity="0.64"/>
<path id="Union" d="M26.8559 13.9441C27.674 14.7623 27.6746 16.089 26.8566 16.9072L22.9785 20.7852L26.8559 24.6626C27.674 25.4807 27.6745 26.8074 26.8566 27.6257C26.0384 28.4439 24.711 28.4439 23.8928 27.6257L20.0155 23.7483L16.1381 27.6257C15.3199 28.4439 13.9925 28.4439 13.1743 27.6257C12.3564 26.8074 12.3569 25.4807 13.175 24.6626L17.0524 20.7852L13.1743 16.9072C12.3564 16.089 12.3569 14.7622 13.175 13.9441C13.9932 13.1263 15.3193 13.1263 16.1374 13.9441L20.0155 17.8221L23.8935 13.9441C24.7116 13.1261 26.0377 13.1262 26.8559 13.9441Z" fill="var(--fill-0, white)"/>
</g>
</svg>
