<svg width="50" height="40" viewBox="0 0 50 40" fill="none" xmlns="http://www.w3.org/2000/svg">
<path d="M23.8712 37.5255C28.0864 36.8043 28.76 33.781 28.8398 32.3624C28.8656 31.9135 29.0886 31.5003 29.4547 31.252C30.999 30.2227 31.4074 28.8424 31.4074 27.6722C31.4074 26.8316 31.1961 26.096 31.0436 25.6757C31.0248 25.6232 31.0154 25.5683 31.0154 25.5157C31.0154 25.3486 31.1046 25.191 31.2525 25.1026C33.015 24.0566 33.4704 22.5712 33.4704 21.3151C33.4704 20.5843 33.3155 19.9323 33.177 19.4905C33.1629 19.4428 33.1559 19.3449 33.1559 19.2995C33.1559 19.0607 33.3483 18.7956 33.6018 18.7956L44.6373 18.7956C46.7096 18.7956 47.7447 17.2242 47.7447 15.6433C47.7447 14.0624 46.7096 12.491 44.6373 12.491L26.7251 12.491C25.7887 12.491 25.209 11.7626 25.209 10.9769C25.209 10.4993 25.4226 10.0408 25.899 9.72558L28.2037 8.20913C29.2904 7.53807 29.741 6.57089 29.741 5.60609C29.741 3.42575 27.441 1.29317 24.9837 2.80962L2.51138 14.7478C2.36587 14.8266 2.25321 14.9818 2.25321 15.1514L2.25321 31.9183C2.25321 32.1571 2.45505 32.3553 2.68975 32.3696L9.41384 32.7899C9.49129 32.7947 9.57109 32.821 9.6368 32.8639C15.8305 37.0264 19.825 38.2157 23.8712 37.5255Z" fill="white"/>
<path d="M24.2444 39.7875C29.7809 38.8418 30.8535 34.708 31.0553 32.9145C32.7404 31.6393 33.6628 29.7957 33.6628 27.6726C33.6628 27.164 33.6088 26.6864 33.5314 26.2565C34.956 24.998 35.7258 23.2332 35.7258 21.263C35.7258 21.2224 35.7258 21.0886 35.7258 21.0886L44.6396 21.0886C45.2123 21.0886 45.7591 21.06 46.2684 20.9071C48.4793 20.2385 50.0001 18.242 50.0001 15.7154C50.0001 13.1888 48.5215 11.1971 46.3623 10.4998C45.8248 10.3254 45.2475 10.2013 44.6372 10.2013L29.2153 10.2013L29.4054 10.1201C31.0506 9.09079 31.9941 7.45732 31.9941 5.5946C31.9941 3.5862 30.8793 1.66378 29.1566 0.672712C27.509 -0.27059 25.5915 -0.218052 23.8829 0.806446L1.46695 12.7159C0.572755 13.1912 9.26838e-05 14.1249 9.26389e-05 15.1518L9.1906e-05 31.9187C9.18427e-05 33.3659 1.13133 34.5695 2.5536 34.6579L8.79891 35.0471C15.0888 39.2048 19.595 40.5804 24.2467 39.7851L24.2444 39.7875ZM9.42321 32.7904L2.68972 32.3724C2.45502 32.3581 2.25319 32.1599 2.25319 31.9211L2.25319 15.1518C2.25319 14.9822 2.3635 14.8294 2.51136 14.7506L24.9743 2.81484C27.4316 1.30078 29.7387 3.43575 29.7387 5.61609C29.7387 6.58089 29.2904 7.55524 28.2037 8.22391L25.899 9.74991C25.4202 10.0651 25.209 10.5045 25.209 10.9798C25.209 11.7655 25.7887 12.4915 26.7251 12.4915L44.6372 12.4915C46.7096 12.4915 47.7446 14.0628 47.7446 15.6438C47.7446 17.2247 46.7096 18.7961 44.6372 18.7961L33.6018 18.7961C33.3483 18.7961 33.1559 19.0587 33.1559 19.2999C33.1559 19.3453 33.1629 19.417 33.177 19.4647C33.3154 19.9065 33.4703 20.5704 33.4703 21.3036C33.4703 22.5573 33.015 24.0523 31.2524 25.0959C31.1022 25.1842 31.0154 25.3466 31.0154 25.5138C31.0154 25.5663 31.0248 25.6237 31.0436 25.6762C31.1961 26.0965 31.4074 26.832 31.4074 27.6726C31.4074 28.8452 30.999 30.2255 29.4547 31.2548C29.0862 31.5008 28.8632 31.9163 28.8374 32.3629C28.7576 33.7838 28.084 36.8072 23.8689 37.5284C19.8203 38.2185 15.8328 37.0292 9.63913 32.8668C9.57341 32.8238 9.49831 32.7975 9.42086 32.7927L9.42321 32.7904Z" fill="#262A2F"/>
</svg>
