<svg width="48" height="43" viewBox="0 0 48 43" fill="none" xmlns="http://www.w3.org/2000/svg">
<path d="M21.0709 17.9355L28.0554 21.4997L21.0709 25.0649" fill="#FF9000"/>
<path d="M31.8033 21.5002V27.0752C31.8033 27.0752 27.6371 27.5814 23.9993 27.5814C20.3628 27.5814 16.1952 27.0752 16.1952 27.0752V15.9243C16.1952 15.9243 20.3628 15.4191 23.9993 15.4191C27.6371 15.4191 31.8033 15.9243 31.8033 15.9243V21.5002ZM34.7666 15.3971C33.9696 13.9106 32.6266 13.1322 30.9102 12.6768C29.0404 12.1823 26.1115 12 23.9993 12C21.887 12 18.9591 12.1823 17.0897 12.6768C15.3719 13.1322 14.0284 13.9106 13.2334 15.3971C12.4368 16.8821 12.0902 18.4037 12.0902 21.5002C12.0902 24.5958 12.4368 26.1179 13.2334 27.6044C14.0284 29.0894 15.3719 29.8673 17.0897 30.3232C18.9591 30.8192 21.887 31 23.9993 31C26.1115 31 29.0404 30.8192 30.9102 30.3232C32.6266 29.8673 33.9696 29.0894 34.7666 27.6044C35.5631 26.1179 35.9098 24.5958 35.9098 21.5002C35.9098 18.4037 35.5631 16.8821 34.7666 15.3971Z" fill="#1688F9"/>
</svg>
